# xmcd CD database file
#
# Track frame offsets:
#	150
#	22687
#	35347
#	56067
#	82760
#	99262
#	117537
#	141835
#	166297
#	182602
#	202930
#	217275
#	234910
#	263560
#
# Disc length: 3778 seconds
#
# Revision: 2
# Processed by: cddbd v1.5.2PL0 Copyright (c) Steve Scherf et al.
# Submitted via: CDex 1.51
#
DISCID=b00ec00e
DTITLE=The Hamsters - The Hamsters
DYEAR=1993
DGENRE=Blues/Rock
TTITLE0=(I Wanna) Make Love To You
TTITLE1=Georgia Slop
TTITLE2=Climbing The Corporate Ladder
TTITLE3=In The Heat Of The Night
TTITLE4=The Guitar Bug
TTITLE5=I Wouldn't Treat A Dog
TTITLE6=Blues For The Blues
TTITLE7=Heart Of Darkness
TTITLE8=Black Monday (All Over Again)
TTITLE9=Little Fine And Healthy Thing
TTITLE10=Chevrolet
TTITLE11=Sittin' On The Boat Dock
TTITLE12=You'll Come Running Back To Me
TTITLE13=Check From The Neck Up
EXTD=YEAR: 1993
EXTT0=
EXTT1=
EXTT2=
EXTT3=
EXTT4=
EXTT5=
EXTT6=
EXTT7=
EXTT8=
EXTT9=
EXTT10=
EXTT11=
EXTT12=
EXTT13=
PLAYORDER=
